<svg width="300" height="150" xmlns="http://www.w3.org/2000/svg" class="fl-svgdocument">

 <g>
  <title>Layer 1</title>
  <path d="m29.57297,106.81123l0,0q-2.35517,0 -2.35517,2.77885l0,0q0,11.52247 0.3863,13.57026l0,0q0.2243,1.23781 0.56906,1.84426l0,0l0.60645,1.07582l-7.19843,0q0.64798,-1.54104 0.76013,-2.57532q0.11215,-1.03428 0.19107,-2.20979l0,0q0.162,-2.39671 0.162,-6.42998l0,0q0,-4.88895 -0.162,-8.92638l0,0l-0.22015,-5.57431q-0.08307,-2.1101 -0.36553,-2.94085l0,0q-0.4486,-1.32089 -1.46212,-2.37594l0,0l10.7291,0q4.90972,0 7.09874,0.97613l0,0q2.31363,1.01351 2.31363,3.46837l0,0q0,2.14748 -1.60334,4.03328l0,0q-1.4995,1.74457 -3.93359,2.77885l0,0q0.30322,7.78826 4.88479,14.9493l0,0q1.96887,3.10284 4.01666,4.82664l0,0l-7.60549,0q-1.98549,-2.71654 -3.6719,-11.01156l0,0q-0.56491,-2.88269 -0.73937,-4.78926q-0.1703,-1.90657 -0.28245,-2.30117q-0.11215,-0.3946 -0.35722,-0.63968l0,0q-0.48599,-0.52752 -1.76118,-0.52752zm4.67295,-3.6179q0.5566,-0.59814 0.79336,-1.28766q0.23261,-0.68952 0.23261,-1.3292q0,-0.63968 -0.17446,-1.27935q-0.1703,-0.63968 -0.67706,-1.12566l0,0q-1.11736,-1.09243 -3.89621,-1.09243l0,0q-1.03428,0 -1.67396,0.07892q-0.63968,0.08307 -1.00105,0.4486l0,0q-0.63137,0.60645 -0.63137,3.10284l0,0q0,2.18902 0.46937,2.79546l0,0q0.83075,1.07582 2.51301,1.07582q1.68226,0 2.58778,-0.3946q0.90136,-0.3946 1.45796,-0.99274zm11.55086,-8.14548l6.99905,0q-0.75183,1.8858 -0.87228,3.78405q-0.12461,1.8941 -0.18276,3.25653q-0.06231,1.35827 -0.10384,2.81623l0,0q-0.05815,3.41022 -0.05815,6.20568l0,0q0,11.48093 0.85152,14.07701l0,0q0.14123,0.4486 0.36553,0.89305l0,0l-6.99905,0q0.62721,-1.37904 0.75183,-2.4964q0.12046,-1.1132 0.22015,-2.65424l0,0q0.24507,-3.18592 0.24507,-7.34381q0,-4.15789 -0.02077,-5.68647q-0.02077,-1.53273 -0.06231,-2.99484l0,0q-0.14123,-7.1195 -0.85152,-9.04269l0,0l-0.28245,-0.81413zm25.93989,21.11344l0,0l-0.02077,-2.63347q0,-2.29286 -0.44445,-3.053q-0.4486,-0.76013 -0.93459,-1.11736q-0.48599,-0.35307 -1.19628,-0.7186l0,0l8.90561,0q-1.27935,1.17551 -1.62411,2.999l0,0q-0.32399,1.74457 -0.32399,5.3957l0,0q0,7.09874 0.85152,9.45391l0,0q-0.28245,0.02077 -0.56906,0.02077l0,0l-0.54414,0q-8.92638,0 -13.52872,-5.74046l0,0q-4.40296,-5.49955 -4.40296,-15.59728l0,0q0,-4.98864 2.94085,-7.64703l0,0q2.71654,-2.47563 7.2815,-2.47563l0,0l3.56806,0.04154q2.82039,0 3.93774,-0.68952l0,0q0.46522,-0.30322 0.78921,-0.7726l0,0q0.50676,0.97613 0.50676,2.67916q0,1.70303 -0.09969,2.74977q-0.10384,1.04259 -0.30322,2.03533l0,0q-0.42783,2.1101 -1.32089,3.28561l0,0q-0.76844,-4.05405 -1.92733,-5.59508l0,0q-1.29597,-1.70303 -4.05405,-1.70303l0,0q-3.48914,0 -4.93049,2.79546l0,0q-1.03428,2.05195 -1.03428,6.20984l0,0q0,5.69893 1.76534,10.92848l0,0q1.23781,3.6719 3.08207,5.21294l0,0q0.95536,0.81413 1.97718,0.81413q1.02597,0 1.30843,-0.58983q0.28661,-0.58983 0.30322,-2.00625l0,0q0.04154,-2.79962 0.04154,-4.2825zm25.65663,-0.48599l0,0l0.10384,-7.78826q0,-8.17455 -0.6106,-10.44665l0,0q-0.28245,-1.09243 -0.67706,-1.59919q-0.39876,-0.50676 -0.63968,-0.79336l0,0l6.65013,0l-0.42368,0.56906q-0.91382,1.3375 -1.01351,3.02392q-0.10384,1.68226 -0.15369,3.40606q-0.04984,1.7238 -0.09138,3.42683l0,0q-0.04154,2.86192 -0.04154,6.38845l0,0l0,2.47563q0,6.55044 -2.1101,9.3916l0,0q-2.08518,2.75808 -6.81213,2.75808l0,0q-9.14653,0 -9.10914,-11.74261l0,0l0.02077,-15.19437q0,-3.20253 -1.13397,-4.50265l0,0l7.68441,0q-1.19628,1.44135 -1.19628,4.09974l0,0q0,1.54104 -0.02077,3.16099l0,0l-0.07892,6.49229q-0.02077,1.60334 -0.02077,3.30637l0,0q0,6.10184 0.36553,7.73841q0.36553,1.63242 0.89305,2.54209l0,0q1.21704,2.06856 3.6096,2.06856l0,0q3.69267,0 4.54419,-5.39155l0,0q0.26169,-1.60334 0.26169,-3.38945zm23.60773,2.89931l0,0q0.46937,0.93459 0.46937,2.20148q0,1.26689 -0.14538,2.13917q-0.14123,0.87228 -0.40291,1.58257l0,0q-0.56906,1.58257 -1.48288,1.58257l0,0l-15.81743,0q1.23781,-1.31673 2.20979,-3.65113l0,0l1.70303,-4.2202q5.88169,-15.85897 6.47152,-17.65338q0.58568,-1.79441 0.58568,-2.41332q0,-0.61891 -0.69783,-0.84321q-0.70198,-0.22015 -2.06025,-0.22015q-1.35827,0 -2.25963,0.46522q-0.90136,0.46522 -1.59088,1.29597l0,0q-1.20043,1.39981 -2.29286,4.52342l0,0q-0.54829,-0.54829 -0.54829,-2.12671q0,-1.58257 0.13292,-2.5587q0.12877,-0.97197 0.3946,-1.78195l0,0q0.56906,-1.84841 1.58257,-1.84841l0,0l14.47993,0q-0.99274,1.52442 -1.8858,3.69267l0,0l-1.56181,3.93359q-3.32714,8.98453 -4.15789,11.36047l0,0q-2.04779,5.91907 -2.41332,7.03643q-0.36553,1.1132 -0.36553,1.58257l0,0q0,1.39981 2.27209,1.39981l0,0q2.61685,0 4.25758,-1.23781l0,0q1.60334,-1.19628 3.12361,-4.24097z" data-uid="o_ej6lg2eim_6" id="_mOh9j9ZaRIRnula2Dh3jK" fill="#000000" y="0" x="0" font-scale="contain" font-family="Amarante" space="preserve" dy="0" dx="0" offset="1" side="left" letter-spacing="0" font-size="100" text-anchor="end" text="RIGUZ"/>
  <g data-uid="o_ej6lg2eim_7" transform="matrix(1 0 0 1 -0.0000435817 -0.00000631113)" id="_2cVCJFMNXc8d-jqAYsSes">
   <path data-uid="o_ej6lg2eim_8" d="m162.12905,36.4489c-1.38442,0.26023 -2.19485,14.44795 -2.19931,14.52825c-0.08327,1.33089 -14.99369,7.56599 -15.73274,6.82694c-5.2269,-5.20459 -10.44487,-8.66639 -11.46646,-7.85745c-1.49595,1.1807 2.70639,14.57881 2.7168,14.59219c0.30038,0.73162 -0.89668,4.41796 -0.97549,5.3072c-0.30187,3.40678 -0.17101,6.79422 0.93385,10.06866c5.52579,16.38406 19.91575,16.64131 33.67669,10.63373c19.08004,-8.32437 20.26817,-31.07291 2.19634,-41.39287c0.00149,0.00149 -5.09753,-13.46056 -9.14967,-12.70664z" fill="#000000" id="_aj8K66clCupXlmOFkT4-X"/>
   <path data-uid="o_ej6lg2eim_9" d="m179.67092,129.31511l-9.87683,0c-0.21859,-3.71311 1.3294,-7.53179 0.6647,-11.20623c-0.40745,-2.23054 -1.89745,-4.74659 -4.68859,-5.24028c-1.61342,-0.287 -3.90196,-0.67511 -6.32284,-0.88627c-2.42237,0.21116 -4.70941,0.59778 -6.32581,0.88627c-2.78817,0.49369 -4.27818,3.00974 -4.68562,5.24028c-0.6647,3.67444 0.88329,7.49313 0.6647,11.20623l-9.87683,0c-0.55912,-3.03205 0.20075,-6.95928 -0.0119,-8.998c-0.91601,-8.85673 -2.21418,-19.46964 0.78961,-28.23715c6.18603,5.64773 15.82345,5.8455 25.81478,2.46698c4.82391,-1.63276 9.0441,-3.31756 12.1847,-6.13101c4.13542,9.15414 2.68111,22.26227 1.68034,31.90118c-0.20967,2.03871 0.5502,5.96595 -0.01041,8.998z" fill="#e78200" id="_2X1VoRI4PMkdOrXec5GeD"/>
   <path fill="#e78200" data-uid="o_ej6lg2eim_10" id="_aE_ILj1IGEDPjOi-nUJR0" d="m232.80175,7.65518c2.25879,0 1.6045,4.97708 1.64763,5.73548c0.3777,6.59348 -1.90191,13.06353 -1.62383,19.6466c0.07584,1.4097 22.28012,8.42252 22.54332,7.95113c4.5161,-8.15933 12.32596,-22.74258 16.79448,-22.27417c2.99636,0.31376 4.79269,6.00461 5.15998,9.00395c2.17849,17.78186 -2.19336,35.44477 -12.62039,47.36031c-6.56225,7.49759 -15.18552,12.61296 -25.59619,11.62706c-12.74828,-1.20598 -31.5547,-6.19198 -35.85221,-20.21167c-3.5079,-11.43226 1.8796,-25.38206 6.83289,-35.58157c4.83432,-9.94227 16.11788,-23.25711 22.71433,-23.25711"/>
   <path data-uid="o_ej6lg2eim_11" d="m272.53337,128.49712l-24.86606,0c-0.05651,-0.99631 0.46247,-2.08332 0.85355,-3.00231c1.04835,-2.46698 2.96513,-4.64547 3.18967,-7.39201c0.25874,-3.17629 -1.60748,-6.29756 -3.23577,-8.89242c-0.91898,-1.47364 -6.22172,-0.18737 -7.63291,0.09517c-3.02907,0.61712 -6.23213,1.7993 -9.35786,1.20598c-3.62537,-0.68701 -7.4619,-2.57702 -11.20326,-2.40006c-2.38816,0.11004 -2.85955,2.28853 -3.37406,4.42837c-0.40298,1.64614 -0.34053,3.30863 0.00297,4.96667c0.24982,1.18665 3.82315,8.08496 3.58968,10.9921l-24.71736,0c0.10855,-2.71234 3.03651,-7.19572 3.81274,-10.63521c0.86248,-3.82017 0.287,-7.52138 0.72121,-11.35791c0.33756,-2.97405 0.94129,-5.93175 1.93611,-8.76305c2.15916,-6.15034 6.02989,-10.67239 10.40026,-15.34909c0.18737,-0.1948 6.0983,2.62906 6.92806,2.91903c7.20613,2.54579 14.77956,5.10942 22.5344,4.29453c2.17106,-0.22603 4.29899,-0.7331 6.41355,-1.27141c2.40452,-0.61117 4.84027,-1.25505 7.06784,-2.37478c0.51154,-0.25726 4.91314,-2.74059 4.46257,-3.41421l2.85807,4.28561c2.68854,4.63357 5.19716,8.84781 5.48118,14.42416c0.21711,4.29751 -0.32715,8.711 0.51451,12.95944c0.85207,4.30345 2.83725,9.83817 3.62091,14.2814z" fill="#000000" id="_xQt2Ayg30StdBhNnoW0hu"/>
  </g>
 </g>
</svg>